<svg xmlns="http://www.w3.org/2000/svg" width="342" height="342" viewBox="0 0 342 342"><rect width="100%" height="100%" fill="#DDDDDD"/><path fill="#999999" d="m72.22 164.17-2.99-.53q.34-2.39 1.33-4.2.99-1.8 2.47-3.01 1.49-1.21 3.41-1.82t4.12-.61q2.3 0 4.16.66 1.85.66 3.16 1.82t2.01 2.72q.7 1.57.7 3.38 0 1.59-.35 2.8-.36 1.21-1.03 2.1-.66.9-1.65 1.52t-2.23 1.04q2.99.94 4.46 2.87t1.47 4.85q0 2.49-.92 4.4t-2.48 3.2q-1.57 1.3-3.63 1.97t-4.36.67q-2.5 0-4.37-.58-1.86-.57-3.24-1.7t-2.34-2.76q-.97-1.63-1.66-3.77l2.51-1.04q.99-.41 1.85-.21.86.19 1.25.93.42.8.91 1.58.49.79 1.18 1.4t1.63.98q.93.38 2.22.38 1.44 0 2.53-.47 1.08-.47 1.8-1.23.73-.76 1.08-1.69.36-.93.36-1.87 0-1.2-.25-2.18-.26-.97-1.06-1.66-.81-.69-2.31-1.09-1.51-.39-4.04-.39v-4.04q2.09-.03 3.47-.39 1.38-.37 2.2-1.03.82-.65 1.14-1.57t.32-2.03q0-2.34-1.31-3.56t-3.5-1.22q-1.01 0-1.86.29-.85.28-1.53.8t-1.14 1.21-.69 1.52q-.39 1.05-1.02 1.4-.63.34-1.78.16m27.46 10.92h10.12v-10.87q0-1.54.2-3.41zm15.06 0h4.19v3.29q0 .46-.3.8-.3.33-.85.33h-3.04v8.12h-4.94v-8.12H95.77q-.58 0-1.01-.36-.44-.35-.56-.88l-.59-2.88 15.75-21.04h5.38zm19.39 7.25h8.53q.92 0 1.47.52.54.52.54 1.37v3.4h-22.82v-1.89q0-.57.24-1.2.24-.64.77-1.14l10.1-10.12q1.26-1.29 2.26-2.46 1-1.18 1.67-2.33t1.03-2.33q.35-1.19.35-2.5 0-1.19-.34-2.1-.35-.91-.98-1.53t-1.52-.93q-.88-.31-1.99-.31-1.01 0-1.87.29-.87.28-1.53.8-.67.52-1.13 1.21t-.69 1.52q-.39 1.05-1.01 1.4-.62.34-1.8.16l-2.99-.53q.35-2.39 1.34-4.2.99-1.8 2.47-3.01t3.41-1.82q1.92-.61 4.12-.61 2.3 0 4.21.68t3.27 1.92 2.11 2.99q.76 1.75.76 3.89 0 1.84-.54 3.4-.54 1.57-1.45 2.99-.9 1.43-2.12 2.76-1.22 1.34-2.56 2.72l-7.49 7.66q1.08-.33 2.15-.5t2.03-.17m48.03-2.32-3.02 2.96-7.79-7.79-7.87 7.84-3.01-2.97 7.86-7.89-7.5-7.49 2.99-2.99 7.5 7.49 7.45-7.45 3.04 2.99-7.47 7.48zm19.13-15.85-2.99-.53q.35-2.39 1.34-4.2.98-1.8 2.47-3.01 1.48-1.21 3.4-1.82t4.13-.61q2.3 0 4.15.66t3.16 1.82q1.32 1.16 2.02 2.72.7 1.57.7 3.38 0 1.59-.36 2.8-.35 1.21-1.02 2.1-.67.9-1.66 1.52t-2.23 1.04q2.99.94 4.46 2.87 1.48 1.93 1.48 4.85 0 2.49-.92 4.4t-2.49 3.2q-1.56 1.3-3.62 1.97t-4.36.67q-2.51 0-4.37-.58-1.86-.57-3.24-1.7t-2.35-2.76q-.96-1.63-1.65-3.77l2.5-1.04q.99-.41 1.85-.21.87.19 1.26.93.41.8.91 1.58.49.79 1.18 1.4t1.62.98q.93.38 2.22.38 1.45 0 2.53-.47t1.81-1.23q.72-.76 1.08-1.69.35-.93.35-1.87 0-1.2-.25-2.18-.25-.97-1.06-1.66-.8-.69-2.31-1.09-1.5-.39-4.03-.39v-4.04q2.09-.03 3.47-.39 1.38-.37 2.2-1.03.81-.65 1.13-1.57.33-.92.33-2.03 0-2.34-1.32-3.56-1.31-1.22-3.49-1.22-1.01 0-1.86.29-.86.28-1.53.8-.68.52-1.14 1.21t-.69 1.52q-.39 1.05-1.03 1.4-.63.34-1.78.16m27.46 10.92h10.12v-10.87q0-1.54.21-3.41zm15.07 0H248v3.29q0 .46-.29.8-.3.33-.86.33h-3.03v8.12h-4.95v-8.12h-14.03q-.57 0-1.01-.36-.44-.35-.55-.88l-.6-2.88 15.76-21.04h5.38zm19.39 7.25h8.53q.92 0 1.46.52t.54 1.37v3.4h-22.81v-1.89q0-.57.24-1.2.24-.64.77-1.14l10.09-10.12q1.27-1.29 2.27-2.46 1-1.18 1.67-2.33.66-1.15 1.02-2.33.36-1.19.36-2.5 0-1.19-.35-2.1-.34-.91-.97-1.53-.64-.62-1.52-.93-.89-.31-1.99-.31-1.01 0-1.88.29-.86.28-1.53.8-.66.52-1.12 1.21t-.69 1.52q-.39 1.05-1.02 1.4-.62.34-1.79.16l-2.99-.53q.35-2.39 1.33-4.2.99-1.8 2.48-3.01 1.48-1.21 3.4-1.82t4.13-.61q2.3 0 4.21.68t3.26 1.92q1.36 1.24 2.12 2.99t.76 3.89q0 1.84-.54 3.4-.54 1.57-1.45 2.99-.91 1.43-2.13 2.76-1.22 1.34-2.55 2.72l-7.5 7.66q1.08-.33 2.15-.5t2.04-.17"/></svg>