<svg xmlns="http://www.w3.org/2000/svg" width="768" height="474" viewBox="0 0 768 474"><rect width="100%" height="100%" fill="#DDDDDD"/><path fill="#999999" d="M155.83 200.12h50.95v5.46q0 2.45-.51 3.95-.51 1.51-1.02 2.53l-27.95 57.53q-.87 1.78-2.45 3.03t-4.23 1.25h-9.13L190 217.51q.97-1.73 1.91-3.18.94-1.46 2.12-2.78h-35.3q-1.17 0-2.04-.87-.86-.87-.86-2.04zm102.91 0-21.87 26.78-2.55 3.16q2.14-1.07 4.61-1.66 2.47-.58 5.33-.58 4.18 0 8.14 1.37 3.95 1.38 6.96 4.16t4.84 6.91q1.84 4.13 1.84 9.64 0 5.15-1.89 9.66-1.89 4.52-5.3 7.88-3.42 3.37-8.24 5.31t-10.63 1.94q-5.92 0-10.61-1.89t-8.01-5.28q-3.31-3.39-5.07-8.16t-1.76-10.58q0-5.2 2.11-10.69 2.12-5.48 6.56-11.4l17.59-23.61q.92-1.22 2.68-2.09t4.05-.87zm-19.02 64.26q3.01 0 5.54-1.02 2.52-1.02 4.33-2.85 1.81-1.84 2.83-4.31 1.02-2.48 1.02-5.38 0-3.16-.97-5.69-.97-2.52-2.75-4.28-1.79-1.76-4.29-2.68t-5.5-.92q-3.01 0-5.46 1.02t-4.18 2.83q-1.74 1.81-2.71 4.29-.97 2.47-.97 5.33 0 3.06.85 5.58.84 2.52 2.5 4.31 1.65 1.78 4.1 2.78 2.45.99 5.66.99m59.26.46q3.11 0 5.46-.89t3.95-2.47q1.61-1.58 2.43-3.78.81-2.19.81-4.74 0-6.07-3.36-9.18-3.37-3.11-9.29-3.11-5.91 0-9.28 3.11-3.36 3.11-3.36 9.18 0 2.55.81 4.74.82 2.2 2.42 3.78 1.61 1.58 3.96 2.47 2.34.89 5.45.89m0-56.05q-2.8 0-4.84.87t-3.39 2.32-1.99 3.34-.64 3.98q0 2.19.54 4.26.53 2.06 1.81 3.67 1.27 1.61 3.36 2.58 2.09.96 5.15.96t5.15-.96q2.1-.97 3.37-2.58 1.28-1.61 1.81-3.67.54-2.07.54-4.26 0-2.09-.67-3.98-.66-1.89-1.99-3.34-1.32-1.45-3.36-2.32t-4.85-.87m12.45 26.63q6.73 2.19 9.94 6.7 3.22 4.52 3.22 11.04 0 4.9-1.87 8.88-1.86 3.98-5.22 6.78-3.37 2.81-8.09 4.34-4.71 1.53-10.43 1.53-5.71 0-10.43-1.53-4.71-1.53-8.08-4.34-3.37-2.8-5.23-6.78t-1.86-8.88q0-6.52 3.21-11.04 3.22-4.51 9.95-6.7-5.36-2.25-8.03-6.38-2.68-4.13-2.68-9.94 0-4.19 1.71-7.81t4.77-6.3q3.06-2.67 7.32-4.18 4.25-1.5 9.35-1.5t9.36 1.5q4.26 1.51 7.32 4.18 3.06 2.68 4.77 6.3t1.71 7.81q0 5.81-2.68 9.94t-8.03 6.38M407 256.99l-6.68 6.58-17.29-17.29-17.44 17.39-6.68-6.58 17.44-17.49-16.63-16.63 6.63-6.63 16.63 16.63 16.52-16.53 6.74 6.63-16.58 16.58zm44.17-10.92h22.44v-24.12q0-3.42.46-7.55zm33.4 0h9.28v7.3q0 1.02-.66 1.76t-1.89.74h-6.73v18h-10.96v-18H442.5q-1.28 0-2.25-.79t-1.22-1.97l-1.33-6.37 34.94-46.67h11.93zm16.63-45.95h50.95v5.46q0 2.45-.51 3.95-.51 1.51-1.02 2.53l-27.95 57.53q-.87 1.78-2.45 3.03t-4.23 1.25h-9.13l28.51-56.36q.97-1.73 1.91-3.18.94-1.46 2.12-2.78h-35.29q-1.18 0-2.04-.87-.87-.87-.87-2.04zm68.29 45.95h22.44v-24.12q0-3.42.46-7.55zm33.4 0h9.28v7.3q0 1.02-.66 1.76t-1.89.74h-6.73v18h-10.96v-18h-31.11q-1.28 0-2.25-.79t-1.22-1.97l-1.33-6.37 34.94-46.67h11.93z"/></svg>